[img]http://img692.imageshack.us/img692/922/sevenpsychopats.jpg[/img]

[b][size=200][color=black]PLOT[/color][/size][/b]

[code]A struggling screenwriter inadvertently becomes entangled 
in the Los Angeles criminal underworld after his oddball friends 
kidnap a gangster's beloved Shih Tzu.[/code]

[b][size=200][color=black]IMDB[/color][/size][/b]

[code]http://www.imdb.com/title/tt1931533/[/code]

[b][size=200][color=black]MOVIE INFO[/color][/size][/b]

[code]Seven Psychopaths [2012] BRRip x264 AAC-V3nom

Format                                   : MPEG-4
Format profile                           : Base Media / Version 2
Codec ID                                 : mp42
File size                                : 347 MiB
Duration                                 : 1h 50mn
Overall bit rate mode                    : Variable
Overall bit rate                         : 440 Kbps
Encoded date                             : UTC 2013-01-11 12:21:04
Tagged date                              : UTC 2013-01-11 12:54:21

Video
ID                                       : 1
Format                                   : AVC
Format/Info                              : Advanced Video Codec
Format profile                           : Main@L2.1
Format settings, CABAC                   : Yes
Format settings, ReFrames                : 4 frames
Codec ID                                 : avc1
Codec ID/Info                            : Advanced Video Coding
Duration                                 : 1h 50mn
Bit rate mode                            : Variable
Bit rate                                 : 311 Kbps
Width                                    : 640 pixels
Height                                   : 272 pixels
Display aspect ratio                     : 2.35:1
Original display aspect ratio            : 2.35:1
Frame rate mode                          : Variable
Frame rate                               : 23.976 fps
Minimum frame rate                       : 11.989 fps
Maximum frame rate                       : 90 000.000 fps
Color space                              : YUV
Chroma subsampling                       : 4:2:0
Bit depth                                : 8 bits
Scan type                                : Progressive
Bits/(Pixel*Frame)                       : 0.075
Stream size                              : 242 MiB (70%)
Writing library                          : x264 core 112

Audio
ID                                       : 2
Format                                   : AAC
Format/Info                              : Advanced Audio Codec
Format profile                           : LC
Codec ID                                 : 40
Duration                                 : 1h 50mn
Bit rate mode                            : Variable
Bit rate                                 : 128 Kbps
Maximum bit rate                         : 232 Kbps
Channel(s)                               : 2 channels
Channel positions                        : Front: L R
Sampling rate                            : 48.0 KHz
Compression mode                         : Lossy
Delay relative to video                  : 83ms
Stream size                              : 101 MiB (29%)
Encoded date                             : UTC 2013-01-11 12:21:04
Tagged date                              : UTC 2013-01-11 12:54:16[/code]

[b][size=200][color=black]SOURCE[/color][/size][/b]

[code]Seven Psychopaths 2012 BRRIP XviD - [RiSES](Thanks)[/code]

[b][size=200][color=black]SCREENSHOTS[/color][/size][/b]

[img]http://img838.imageshack.us/img838/7054/sevenpsychopaths2012brr.jpg[/img]

[img]http://kastatic.com/i2/users/133df62bbf28e62494bb17fe11078f1a.gif[/img][img]http://kastatic.com/i2/users/133df62bbf28e62494bb17fe11078f1a.gif[/img]